<mxfile host="app.diagrams.net" modified="2021-08-21T02:26:04.694Z" agent="5.0 (X11; Linux x86_64) AppleWebKit/537.36 (KHTML, like Gecko) Chrome/92.0.4515.159 Safari/537.36" etag="R1CuXD4iUDiZGbFir-kT" version="14.9.8" type="github">
  <diagram id="C5RBs43oDa-KdzZeNtuy" name="Page-1">
    <mxGraphModel dx="2692" dy="545" grid="1" gridSize="10" guides="1" tooltips="1" connect="1" arrows="1" fold="1" page="1" pageScale="1" pageWidth="827" pageHeight="1169" math="0" shadow="0">
      <root>
        <mxCell id="WIyWlLk6GJQsqaUBKTNV-0" />
        <mxCell id="WIyWlLk6GJQsqaUBKTNV-1" parent="WIyWlLk6GJQsqaUBKTNV-0" />
        <mxCell id="zkfFHV4jXpPFQw0GAbJ--0" value="Customer" style="swimlane;fontStyle=2;align=center;verticalAlign=top;childLayout=stackLayout;horizontal=1;startSize=26;horizontalStack=0;resizeParent=1;resizeLast=0;collapsible=1;marginBottom=0;rounded=0;shadow=0;strokeWidth=1;" parent="WIyWlLk6GJQsqaUBKTNV-1" vertex="1">
          <mxGeometry x="152" y="20" width="160" height="138" as="geometry">
            <mxRectangle x="230" y="140" width="160" height="26" as="alternateBounds" />
          </mxGeometry>
        </mxCell>
        <mxCell id="zkfFHV4jXpPFQw0GAbJ--1" value="Name" style="text;align=left;verticalAlign=top;spacingLeft=4;spacingRight=4;overflow=hidden;rotatable=0;points=[[0,0.5],[1,0.5]];portConstraint=eastwest;" parent="zkfFHV4jXpPFQw0GAbJ--0" vertex="1">
          <mxGeometry y="26" width="160" height="26" as="geometry" />
        </mxCell>
        <mxCell id="zkfFHV4jXpPFQw0GAbJ--2" value="Phone Number" style="text;align=left;verticalAlign=top;spacingLeft=4;spacingRight=4;overflow=hidden;rotatable=0;points=[[0,0.5],[1,0.5]];portConstraint=eastwest;rounded=0;shadow=0;html=0;" parent="zkfFHV4jXpPFQw0GAbJ--0" vertex="1">
          <mxGeometry y="52" width="160" height="26" as="geometry" />
        </mxCell>
        <mxCell id="zkfFHV4jXpPFQw0GAbJ--3" value="Email Address" style="text;align=left;verticalAlign=top;spacingLeft=4;spacingRight=4;overflow=hidden;rotatable=0;points=[[0,0.5],[1,0.5]];portConstraint=eastwest;rounded=0;shadow=0;html=0;" parent="zkfFHV4jXpPFQw0GAbJ--0" vertex="1">
          <mxGeometry y="78" width="160" height="26" as="geometry" />
        </mxCell>
        <mxCell id="zkfFHV4jXpPFQw0GAbJ--4" value="" style="line;html=1;strokeWidth=1;align=left;verticalAlign=middle;spacingTop=-1;spacingLeft=3;spacingRight=3;rotatable=0;labelPosition=right;points=[];portConstraint=eastwest;" parent="zkfFHV4jXpPFQw0GAbJ--0" vertex="1">
          <mxGeometry y="104" width="160" height="8" as="geometry" />
        </mxCell>
        <mxCell id="zkfFHV4jXpPFQw0GAbJ--5" value="Purchase Parking Pass" style="text;align=left;verticalAlign=top;spacingLeft=4;spacingRight=4;overflow=hidden;rotatable=0;points=[[0,0.5],[1,0.5]];portConstraint=eastwest;" parent="zkfFHV4jXpPFQw0GAbJ--0" vertex="1">
          <mxGeometry y="112" width="160" height="26" as="geometry" />
        </mxCell>
        <mxCell id="zkfFHV4jXpPFQw0GAbJ--6" value="Student" style="swimlane;fontStyle=0;align=center;verticalAlign=top;childLayout=stackLayout;horizontal=1;startSize=26;horizontalStack=0;resizeParent=1;resizeLast=0;collapsible=1;marginBottom=0;rounded=0;shadow=0;strokeWidth=1;" parent="WIyWlLk6GJQsqaUBKTNV-1" vertex="1">
          <mxGeometry x="52" y="260" width="160" height="138" as="geometry">
            <mxRectangle x="130" y="380" width="160" height="26" as="alternateBounds" />
          </mxGeometry>
        </mxCell>
        <mxCell id="zkfFHV4jXpPFQw0GAbJ--7" value="Student Number" style="text;align=left;verticalAlign=top;spacingLeft=4;spacingRight=4;overflow=hidden;rotatable=0;points=[[0,0.5],[1,0.5]];portConstraint=eastwest;" parent="zkfFHV4jXpPFQw0GAbJ--6" vertex="1">
          <mxGeometry y="26" width="160" height="26" as="geometry" />
        </mxCell>
        <mxCell id="zkfFHV4jXpPFQw0GAbJ--8" value="Average Mark" style="text;align=left;verticalAlign=top;spacingLeft=4;spacingRight=4;overflow=hidden;rotatable=0;points=[[0,0.5],[1,0.5]];portConstraint=eastwest;rounded=0;shadow=0;html=0;" parent="zkfFHV4jXpPFQw0GAbJ--6" vertex="1">
          <mxGeometry y="52" width="160" height="26" as="geometry" />
        </mxCell>
        <mxCell id="zkfFHV4jXpPFQw0GAbJ--9" value="" style="line;html=1;strokeWidth=1;align=left;verticalAlign=middle;spacingTop=-1;spacingLeft=3;spacingRight=3;rotatable=0;labelPosition=right;points=[];portConstraint=eastwest;" parent="zkfFHV4jXpPFQw0GAbJ--6" vertex="1">
          <mxGeometry y="78" width="160" height="8" as="geometry" />
        </mxCell>
        <mxCell id="zkfFHV4jXpPFQw0GAbJ--10" value="Is Eligible To Enroll" style="text;align=left;verticalAlign=top;spacingLeft=4;spacingRight=4;overflow=hidden;rotatable=0;points=[[0,0.5],[1,0.5]];portConstraint=eastwest;fontStyle=4" parent="zkfFHV4jXpPFQw0GAbJ--6" vertex="1">
          <mxGeometry y="86" width="160" height="26" as="geometry" />
        </mxCell>
        <mxCell id="zkfFHV4jXpPFQw0GAbJ--11" value="Get Seminars Taken" style="text;align=left;verticalAlign=top;spacingLeft=4;spacingRight=4;overflow=hidden;rotatable=0;points=[[0,0.5],[1,0.5]];portConstraint=eastwest;" parent="zkfFHV4jXpPFQw0GAbJ--6" vertex="1">
          <mxGeometry y="112" width="160" height="26" as="geometry" />
        </mxCell>
        <mxCell id="zkfFHV4jXpPFQw0GAbJ--12" value="" style="endArrow=block;endSize=10;endFill=0;shadow=0;strokeWidth=1;rounded=0;edgeStyle=elbowEdgeStyle;elbow=vertical;" parent="WIyWlLk6GJQsqaUBKTNV-1" source="zkfFHV4jXpPFQw0GAbJ--6" target="zkfFHV4jXpPFQw0GAbJ--0" edge="1">
          <mxGeometry width="160" relative="1" as="geometry">
            <mxPoint x="132" y="103" as="sourcePoint" />
            <mxPoint x="132" y="103" as="targetPoint" />
          </mxGeometry>
        </mxCell>
        <mxCell id="zkfFHV4jXpPFQw0GAbJ--13" value="Professor" style="swimlane;fontStyle=0;align=center;verticalAlign=top;childLayout=stackLayout;horizontal=1;startSize=26;horizontalStack=0;resizeParent=1;resizeLast=0;collapsible=1;marginBottom=0;rounded=0;shadow=0;strokeWidth=1;" parent="WIyWlLk6GJQsqaUBKTNV-1" vertex="1">
          <mxGeometry x="262" y="260" width="160" height="70" as="geometry">
            <mxRectangle x="340" y="380" width="170" height="26" as="alternateBounds" />
          </mxGeometry>
        </mxCell>
        <mxCell id="zkfFHV4jXpPFQw0GAbJ--14" value="Salary" style="text;align=left;verticalAlign=top;spacingLeft=4;spacingRight=4;overflow=hidden;rotatable=0;points=[[0,0.5],[1,0.5]];portConstraint=eastwest;" parent="zkfFHV4jXpPFQw0GAbJ--13" vertex="1">
          <mxGeometry y="26" width="160" height="26" as="geometry" />
        </mxCell>
        <mxCell id="zkfFHV4jXpPFQw0GAbJ--15" value="" style="line;html=1;strokeWidth=1;align=left;verticalAlign=middle;spacingTop=-1;spacingLeft=3;spacingRight=3;rotatable=0;labelPosition=right;points=[];portConstraint=eastwest;" parent="zkfFHV4jXpPFQw0GAbJ--13" vertex="1">
          <mxGeometry y="52" width="160" height="8" as="geometry" />
        </mxCell>
        <mxCell id="zkfFHV4jXpPFQw0GAbJ--16" value="" style="endArrow=block;endSize=10;endFill=0;shadow=0;strokeWidth=1;rounded=0;edgeStyle=elbowEdgeStyle;elbow=vertical;" parent="WIyWlLk6GJQsqaUBKTNV-1" source="zkfFHV4jXpPFQw0GAbJ--13" target="zkfFHV4jXpPFQw0GAbJ--0" edge="1">
          <mxGeometry width="160" relative="1" as="geometry">
            <mxPoint x="142" y="273" as="sourcePoint" />
            <mxPoint x="242" y="171" as="targetPoint" />
          </mxGeometry>
        </mxCell>
        <mxCell id="zkfFHV4jXpPFQw0GAbJ--17" value="Address" style="swimlane;fontStyle=0;align=center;verticalAlign=top;childLayout=stackLayout;horizontal=1;startSize=26;horizontalStack=0;resizeParent=1;resizeLast=0;collapsible=1;marginBottom=0;rounded=0;shadow=0;strokeWidth=1;" parent="WIyWlLk6GJQsqaUBKTNV-1" vertex="1">
          <mxGeometry x="440" y="20" width="160" height="216" as="geometry">
            <mxRectangle x="550" y="140" width="160" height="26" as="alternateBounds" />
          </mxGeometry>
        </mxCell>
        <mxCell id="zkfFHV4jXpPFQw0GAbJ--18" value="Street" style="text;align=left;verticalAlign=top;spacingLeft=4;spacingRight=4;overflow=hidden;rotatable=0;points=[[0,0.5],[1,0.5]];portConstraint=eastwest;" parent="zkfFHV4jXpPFQw0GAbJ--17" vertex="1">
          <mxGeometry y="26" width="160" height="26" as="geometry" />
        </mxCell>
        <mxCell id="zkfFHV4jXpPFQw0GAbJ--19" value="City" style="text;align=left;verticalAlign=top;spacingLeft=4;spacingRight=4;overflow=hidden;rotatable=0;points=[[0,0.5],[1,0.5]];portConstraint=eastwest;rounded=0;shadow=0;html=0;" parent="zkfFHV4jXpPFQw0GAbJ--17" vertex="1">
          <mxGeometry y="52" width="160" height="26" as="geometry" />
        </mxCell>
        <mxCell id="zkfFHV4jXpPFQw0GAbJ--20" value="State" style="text;align=left;verticalAlign=top;spacingLeft=4;spacingRight=4;overflow=hidden;rotatable=0;points=[[0,0.5],[1,0.5]];portConstraint=eastwest;rounded=0;shadow=0;html=0;" parent="zkfFHV4jXpPFQw0GAbJ--17" vertex="1">
          <mxGeometry y="78" width="160" height="26" as="geometry" />
        </mxCell>
        <mxCell id="zkfFHV4jXpPFQw0GAbJ--21" value="Postal Code" style="text;align=left;verticalAlign=top;spacingLeft=4;spacingRight=4;overflow=hidden;rotatable=0;points=[[0,0.5],[1,0.5]];portConstraint=eastwest;rounded=0;shadow=0;html=0;" parent="zkfFHV4jXpPFQw0GAbJ--17" vertex="1">
          <mxGeometry y="104" width="160" height="26" as="geometry" />
        </mxCell>
        <mxCell id="zkfFHV4jXpPFQw0GAbJ--22" value="Country" style="text;align=left;verticalAlign=top;spacingLeft=4;spacingRight=4;overflow=hidden;rotatable=0;points=[[0,0.5],[1,0.5]];portConstraint=eastwest;rounded=0;shadow=0;html=0;" parent="zkfFHV4jXpPFQw0GAbJ--17" vertex="1">
          <mxGeometry y="130" width="160" height="26" as="geometry" />
        </mxCell>
        <mxCell id="zkfFHV4jXpPFQw0GAbJ--23" value="" style="line;html=1;strokeWidth=1;align=left;verticalAlign=middle;spacingTop=-1;spacingLeft=3;spacingRight=3;rotatable=0;labelPosition=right;points=[];portConstraint=eastwest;" parent="zkfFHV4jXpPFQw0GAbJ--17" vertex="1">
          <mxGeometry y="156" width="160" height="8" as="geometry" />
        </mxCell>
        <mxCell id="zkfFHV4jXpPFQw0GAbJ--24" value="Validate" style="text;align=left;verticalAlign=top;spacingLeft=4;spacingRight=4;overflow=hidden;rotatable=0;points=[[0,0.5],[1,0.5]];portConstraint=eastwest;" parent="zkfFHV4jXpPFQw0GAbJ--17" vertex="1">
          <mxGeometry y="164" width="160" height="26" as="geometry" />
        </mxCell>
        <mxCell id="zkfFHV4jXpPFQw0GAbJ--25" value="Output As Label" style="text;align=left;verticalAlign=top;spacingLeft=4;spacingRight=4;overflow=hidden;rotatable=0;points=[[0,0.5],[1,0.5]];portConstraint=eastwest;" parent="zkfFHV4jXpPFQw0GAbJ--17" vertex="1">
          <mxGeometry y="190" width="160" height="26" as="geometry" />
        </mxCell>
        <mxCell id="zkfFHV4jXpPFQw0GAbJ--26" value="" style="endArrow=open;shadow=0;strokeWidth=1;rounded=0;endFill=1;edgeStyle=elbowEdgeStyle;elbow=vertical;" parent="WIyWlLk6GJQsqaUBKTNV-1" source="zkfFHV4jXpPFQw0GAbJ--0" target="zkfFHV4jXpPFQw0GAbJ--17" edge="1">
          <mxGeometry x="0.5" y="41" relative="1" as="geometry">
            <mxPoint x="312" y="92" as="sourcePoint" />
            <mxPoint x="472" y="92" as="targetPoint" />
            <mxPoint x="-40" y="32" as="offset" />
          </mxGeometry>
        </mxCell>
        <mxCell id="zkfFHV4jXpPFQw0GAbJ--27" value="0..1" style="resizable=0;align=left;verticalAlign=bottom;labelBackgroundColor=none;fontSize=12;" parent="zkfFHV4jXpPFQw0GAbJ--26" connectable="0" vertex="1">
          <mxGeometry x="-1" relative="1" as="geometry">
            <mxPoint y="4" as="offset" />
          </mxGeometry>
        </mxCell>
        <mxCell id="zkfFHV4jXpPFQw0GAbJ--28" value="1" style="resizable=0;align=right;verticalAlign=bottom;labelBackgroundColor=none;fontSize=12;" parent="zkfFHV4jXpPFQw0GAbJ--26" connectable="0" vertex="1">
          <mxGeometry x="1" relative="1" as="geometry">
            <mxPoint x="-7" y="4" as="offset" />
          </mxGeometry>
        </mxCell>
        <mxCell id="zkfFHV4jXpPFQw0GAbJ--29" value="lives at" style="text;html=1;resizable=0;points=[];;align=center;verticalAlign=middle;labelBackgroundColor=none;rounded=0;shadow=0;strokeWidth=1;fontSize=12;" parent="zkfFHV4jXpPFQw0GAbJ--26" vertex="1" connectable="0">
          <mxGeometry x="0.5" y="49" relative="1" as="geometry">
            <mxPoint x="-38" y="40" as="offset" />
          </mxGeometry>
        </mxCell>
        <mxCell id="0kyeVdW8HTEz_GP9G8ct-1" value="Customer&lt;br&gt;Employee&lt;br&gt;Admin" style="text;html=1;strokeColor=none;fillColor=none;align=center;verticalAlign=middle;whiteSpace=wrap;rounded=0;" vertex="1" parent="WIyWlLk6GJQsqaUBKTNV-1">
          <mxGeometry x="110" y="555" width="110" height="60" as="geometry" />
        </mxCell>
        <mxCell id="0kyeVdW8HTEz_GP9G8ct-2" value="Login with saved credentials, Search Cards, Make Orders to Pickup in Store, Submit Decklists, Read Decklists, See Event Schedules,&amp;nbsp;&lt;br&gt;Order Product through Stripe API" style="text;html=1;strokeColor=none;fillColor=none;align=center;verticalAlign=middle;whiteSpace=wrap;rounded=0;" vertex="1" parent="WIyWlLk6GJQsqaUBKTNV-1">
          <mxGeometry x="300" y="500" width="340" height="90" as="geometry" />
        </mxCell>
        <mxCell id="0kyeVdW8HTEz_GP9G8ct-3" value="login, Have Own DashBoard,&amp;nbsp; Update the product collection (prices, stock), approve orders from customers, Create Events (FNM, PTQ), Publish Decklists from users who submit, publish decklists of week/month, create different products and put them in collections" style="text;html=1;strokeColor=none;fillColor=none;align=center;verticalAlign=middle;whiteSpace=wrap;rounded=0;" vertex="1" parent="WIyWlLk6GJQsqaUBKTNV-1">
          <mxGeometry x="300" y="585" width="330" height="100" as="geometry" />
        </mxCell>
        <mxCell id="0kyeVdW8HTEz_GP9G8ct-4" value="What to do with imgs?" style="text;html=1;strokeColor=none;fillColor=none;align=center;verticalAlign=middle;whiteSpace=wrap;rounded=0;" vertex="1" parent="WIyWlLk6GJQsqaUBKTNV-1">
          <mxGeometry x="690" y="560" width="80" height="80" as="geometry" />
        </mxCell>
        <mxCell id="0kyeVdW8HTEz_GP9G8ct-5" value="Admin can see logs from Employees/Users, Same Features as Employees, Has same CRUD but can RWDU employees" style="text;html=1;strokeColor=none;fillColor=none;align=center;verticalAlign=middle;whiteSpace=wrap;rounded=0;" vertex="1" parent="WIyWlLk6GJQsqaUBKTNV-1">
          <mxGeometry x="320" y="685" width="270" height="80" as="geometry" />
        </mxCell>
        <mxCell id="0kyeVdW8HTEz_GP9G8ct-20" value="" style="edgeStyle=orthogonalEdgeStyle;rounded=0;orthogonalLoop=1;jettySize=auto;html=1;" edge="1" parent="WIyWlLk6GJQsqaUBKTNV-1" source="0kyeVdW8HTEz_GP9G8ct-6" target="0kyeVdW8HTEz_GP9G8ct-19">
          <mxGeometry relative="1" as="geometry" />
        </mxCell>
        <mxCell id="0kyeVdW8HTEz_GP9G8ct-26" value="" style="edgeStyle=orthogonalEdgeStyle;rounded=0;orthogonalLoop=1;jettySize=auto;html=1;" edge="1" parent="WIyWlLk6GJQsqaUBKTNV-1" source="0kyeVdW8HTEz_GP9G8ct-6" target="0kyeVdW8HTEz_GP9G8ct-25">
          <mxGeometry relative="1" as="geometry" />
        </mxCell>
        <mxCell id="0kyeVdW8HTEz_GP9G8ct-32" value="" style="edgeStyle=orthogonalEdgeStyle;rounded=0;orthogonalLoop=1;jettySize=auto;html=1;" edge="1" parent="WIyWlLk6GJQsqaUBKTNV-1" source="0kyeVdW8HTEz_GP9G8ct-6" target="0kyeVdW8HTEz_GP9G8ct-31">
          <mxGeometry relative="1" as="geometry" />
        </mxCell>
        <mxCell id="0kyeVdW8HTEz_GP9G8ct-6" value="LOGIN" style="rounded=0;whiteSpace=wrap;html=1;direction=west;" vertex="1" parent="WIyWlLk6GJQsqaUBKTNV-1">
          <mxGeometry x="65" y="1357.5" width="90" height="50" as="geometry" />
        </mxCell>
        <mxCell id="0kyeVdW8HTEz_GP9G8ct-7" value="SEARCH CARDS" style="rounded=0;whiteSpace=wrap;html=1;" vertex="1" parent="WIyWlLk6GJQsqaUBKTNV-1">
          <mxGeometry x="635" y="1160" width="120" height="60" as="geometry" />
        </mxCell>
        <mxCell id="0kyeVdW8HTEz_GP9G8ct-8" value="SEE EVENT SCHEDULE" style="rounded=0;whiteSpace=wrap;html=1;" vertex="1" parent="WIyWlLk6GJQsqaUBKTNV-1">
          <mxGeometry x="635" y="1255" width="120" height="60" as="geometry" />
        </mxCell>
        <mxCell id="0kyeVdW8HTEz_GP9G8ct-13" value="" style="edgeStyle=orthogonalEdgeStyle;rounded=0;orthogonalLoop=1;jettySize=auto;html=1;" edge="1" parent="WIyWlLk6GJQsqaUBKTNV-1" source="0kyeVdW8HTEz_GP9G8ct-9" target="0kyeVdW8HTEz_GP9G8ct-12">
          <mxGeometry relative="1" as="geometry" />
        </mxCell>
        <mxCell id="0kyeVdW8HTEz_GP9G8ct-39" style="edgeStyle=orthogonalEdgeStyle;rounded=0;orthogonalLoop=1;jettySize=auto;html=1;exitX=1;exitY=0.5;exitDx=0;exitDy=0;entryX=0;entryY=0.5;entryDx=0;entryDy=0;" edge="1" parent="WIyWlLk6GJQsqaUBKTNV-1" source="0kyeVdW8HTEz_GP9G8ct-9" target="0kyeVdW8HTEz_GP9G8ct-6">
          <mxGeometry relative="1" as="geometry" />
        </mxCell>
        <mxCell id="0kyeVdW8HTEz_GP9G8ct-9" value="- ADD CARDS TO CART&lt;br&gt;- REMOVE CARDS FROM CART&lt;br&gt;" style="rounded=0;whiteSpace=wrap;html=1;direction=west;" vertex="1" parent="WIyWlLk6GJQsqaUBKTNV-1">
          <mxGeometry x="240" y="1331.25" width="100" height="102.5" as="geometry" />
        </mxCell>
        <mxCell id="0kyeVdW8HTEz_GP9G8ct-12" value="- CHECKOUT/PURCHASE AT STORE" style="whiteSpace=wrap;html=1;rounded=0;" vertex="1" parent="WIyWlLk6GJQsqaUBKTNV-1">
          <mxGeometry x="414" y="1335" width="160" height="95" as="geometry" />
        </mxCell>
        <mxCell id="0kyeVdW8HTEz_GP9G8ct-22" value="" style="edgeStyle=orthogonalEdgeStyle;rounded=0;orthogonalLoop=1;jettySize=auto;html=1;" edge="1" parent="WIyWlLk6GJQsqaUBKTNV-1" source="0kyeVdW8HTEz_GP9G8ct-19" target="0kyeVdW8HTEz_GP9G8ct-21">
          <mxGeometry relative="1" as="geometry" />
        </mxCell>
        <mxCell id="0kyeVdW8HTEz_GP9G8ct-19" value="REGISTER FOR EVENT" style="rounded=0;whiteSpace=wrap;html=1;direction=west;" vertex="1" parent="WIyWlLk6GJQsqaUBKTNV-1">
          <mxGeometry x="62.5" y="1440" width="95" height="50" as="geometry" />
        </mxCell>
        <mxCell id="0kyeVdW8HTEz_GP9G8ct-21" value="SUBMIT DECKLIST" style="rounded=0;whiteSpace=wrap;html=1;direction=west;" vertex="1" parent="WIyWlLk6GJQsqaUBKTNV-1">
          <mxGeometry x="55" y="1530" width="110" height="50" as="geometry" />
        </mxCell>
        <mxCell id="0kyeVdW8HTEz_GP9G8ct-30" value="" style="edgeStyle=orthogonalEdgeStyle;rounded=0;orthogonalLoop=1;jettySize=auto;html=1;" edge="1" parent="WIyWlLk6GJQsqaUBKTNV-1" source="0kyeVdW8HTEz_GP9G8ct-25" target="0kyeVdW8HTEz_GP9G8ct-29">
          <mxGeometry relative="1" as="geometry" />
        </mxCell>
        <mxCell id="0kyeVdW8HTEz_GP9G8ct-25" value="VIEW ORDERS" style="rounded=0;whiteSpace=wrap;html=1;direction=west;" vertex="1" parent="WIyWlLk6GJQsqaUBKTNV-1">
          <mxGeometry x="60" y="1285" width="100" height="40" as="geometry" />
        </mxCell>
        <mxCell id="0kyeVdW8HTEz_GP9G8ct-29" value="CANCEL ORDERS" style="whiteSpace=wrap;html=1;rounded=0;" vertex="1" parent="WIyWlLk6GJQsqaUBKTNV-1">
          <mxGeometry x="60" y="1220" width="100" height="35" as="geometry" />
        </mxCell>
        <mxCell id="0kyeVdW8HTEz_GP9G8ct-31" value="VIEW USER INFO, LOGIN CREDENTIALS,PREVIOUS EVENTS/DECKLISTS" style="rounded=0;whiteSpace=wrap;html=1;direction=west;" vertex="1" parent="WIyWlLk6GJQsqaUBKTNV-1">
          <mxGeometry x="-180" y="1335" width="170" height="87.5" as="geometry" />
        </mxCell>
        <mxCell id="0kyeVdW8HTEz_GP9G8ct-37" value="" style="edgeStyle=orthogonalEdgeStyle;rounded=0;orthogonalLoop=1;jettySize=auto;html=1;" edge="1" parent="WIyWlLk6GJQsqaUBKTNV-1" source="0kyeVdW8HTEz_GP9G8ct-35" target="0kyeVdW8HTEz_GP9G8ct-36">
          <mxGeometry relative="1" as="geometry" />
        </mxCell>
        <mxCell id="0kyeVdW8HTEz_GP9G8ct-35" value="CREATE ACCOUNT" style="rounded=0;whiteSpace=wrap;html=1;" vertex="1" parent="WIyWlLk6GJQsqaUBKTNV-1">
          <mxGeometry x="-170" y="1125" width="160" height="70" as="geometry" />
        </mxCell>
        <mxCell id="0kyeVdW8HTEz_GP9G8ct-36" value="EMAIL CONFIRM THROUGH TWILLIO API" style="rounded=0;whiteSpace=wrap;html=1;" vertex="1" parent="WIyWlLk6GJQsqaUBKTNV-1">
          <mxGeometry x="-170" y="1215" width="160" height="70" as="geometry" />
        </mxCell>
        <mxCell id="0kyeVdW8HTEz_GP9G8ct-41" value="CUSTOMER" style="text;html=1;strokeColor=none;fillColor=none;align=center;verticalAlign=middle;whiteSpace=wrap;rounded=0;fontSize=26;" vertex="1" parent="WIyWlLk6GJQsqaUBKTNV-1">
          <mxGeometry x="230" y="1160" width="270" height="140" as="geometry" />
        </mxCell>
        <mxCell id="0kyeVdW8HTEz_GP9G8ct-42" value="" style="edgeStyle=orthogonalEdgeStyle;rounded=0;orthogonalLoop=1;jettySize=auto;html=1;" edge="1" parent="WIyWlLk6GJQsqaUBKTNV-1" source="0kyeVdW8HTEz_GP9G8ct-45" target="0kyeVdW8HTEz_GP9G8ct-53">
          <mxGeometry relative="1" as="geometry" />
        </mxCell>
        <mxCell id="0kyeVdW8HTEz_GP9G8ct-43" value="" style="edgeStyle=orthogonalEdgeStyle;rounded=0;orthogonalLoop=1;jettySize=auto;html=1;" edge="1" parent="WIyWlLk6GJQsqaUBKTNV-1" source="0kyeVdW8HTEz_GP9G8ct-45" target="0kyeVdW8HTEz_GP9G8ct-56">
          <mxGeometry relative="1" as="geometry" />
        </mxCell>
        <mxCell id="0kyeVdW8HTEz_GP9G8ct-44" value="" style="edgeStyle=orthogonalEdgeStyle;rounded=0;orthogonalLoop=1;jettySize=auto;html=1;" edge="1" parent="WIyWlLk6GJQsqaUBKTNV-1" source="0kyeVdW8HTEz_GP9G8ct-45" target="0kyeVdW8HTEz_GP9G8ct-58">
          <mxGeometry relative="1" as="geometry" />
        </mxCell>
        <mxCell id="0kyeVdW8HTEz_GP9G8ct-66" style="edgeStyle=orthogonalEdgeStyle;rounded=0;orthogonalLoop=1;jettySize=auto;html=1;exitX=1;exitY=0;exitDx=0;exitDy=0;fontSize=26;" edge="1" parent="WIyWlLk6GJQsqaUBKTNV-1" source="0kyeVdW8HTEz_GP9G8ct-45" target="0kyeVdW8HTEz_GP9G8ct-67">
          <mxGeometry relative="1" as="geometry">
            <mxPoint x="-1150" y="1440" as="targetPoint" />
          </mxGeometry>
        </mxCell>
        <mxCell id="0kyeVdW8HTEz_GP9G8ct-45" value="LOGIN" style="rounded=0;whiteSpace=wrap;html=1;direction=west;" vertex="1" parent="WIyWlLk6GJQsqaUBKTNV-1">
          <mxGeometry x="-1065" y="1322.5" width="90" height="50" as="geometry" />
        </mxCell>
        <mxCell id="0kyeVdW8HTEz_GP9G8ct-46" value="SEARCH CARDS" style="rounded=0;whiteSpace=wrap;html=1;" vertex="1" parent="WIyWlLk6GJQsqaUBKTNV-1">
          <mxGeometry x="-570" y="1125" width="120" height="60" as="geometry" />
        </mxCell>
        <mxCell id="0kyeVdW8HTEz_GP9G8ct-47" value="SEE EVENT SCHEDULE" style="rounded=0;whiteSpace=wrap;html=1;" vertex="1" parent="WIyWlLk6GJQsqaUBKTNV-1">
          <mxGeometry x="-570" y="1220" width="120" height="60" as="geometry" />
        </mxCell>
        <mxCell id="0kyeVdW8HTEz_GP9G8ct-48" value="" style="edgeStyle=orthogonalEdgeStyle;rounded=0;orthogonalLoop=1;jettySize=auto;html=1;" edge="1" parent="WIyWlLk6GJQsqaUBKTNV-1" source="0kyeVdW8HTEz_GP9G8ct-50" target="0kyeVdW8HTEz_GP9G8ct-51">
          <mxGeometry relative="1" as="geometry" />
        </mxCell>
        <mxCell id="0kyeVdW8HTEz_GP9G8ct-49" style="edgeStyle=orthogonalEdgeStyle;rounded=0;orthogonalLoop=1;jettySize=auto;html=1;exitX=1;exitY=0.5;exitDx=0;exitDy=0;entryX=0;entryY=0.5;entryDx=0;entryDy=0;" edge="1" parent="WIyWlLk6GJQsqaUBKTNV-1" source="0kyeVdW8HTEz_GP9G8ct-50" target="0kyeVdW8HTEz_GP9G8ct-45">
          <mxGeometry relative="1" as="geometry" />
        </mxCell>
        <mxCell id="0kyeVdW8HTEz_GP9G8ct-50" value="CRUD PRODUCTS" style="rounded=0;whiteSpace=wrap;html=1;direction=west;" vertex="1" parent="WIyWlLk6GJQsqaUBKTNV-1">
          <mxGeometry x="-890" y="1296.25" width="100" height="102.5" as="geometry" />
        </mxCell>
        <mxCell id="0kyeVdW8HTEz_GP9G8ct-51" value="" style="whiteSpace=wrap;html=1;rounded=0;" vertex="1" parent="WIyWlLk6GJQsqaUBKTNV-1">
          <mxGeometry x="-716" y="1300" width="160" height="95" as="geometry" />
        </mxCell>
        <mxCell id="0kyeVdW8HTEz_GP9G8ct-53" value="CREATE EVENTS" style="rounded=0;whiteSpace=wrap;html=1;direction=west;" vertex="1" parent="WIyWlLk6GJQsqaUBKTNV-1">
          <mxGeometry x="-1040" y="1407.5" width="95" height="50" as="geometry" />
        </mxCell>
        <mxCell id="0kyeVdW8HTEz_GP9G8ct-80" value="" style="edgeStyle=orthogonalEdgeStyle;rounded=0;orthogonalLoop=1;jettySize=auto;html=1;fontSize=12;" edge="1" parent="WIyWlLk6GJQsqaUBKTNV-1" source="0kyeVdW8HTEz_GP9G8ct-54" target="0kyeVdW8HTEz_GP9G8ct-69">
          <mxGeometry relative="1" as="geometry" />
        </mxCell>
        <mxCell id="0kyeVdW8HTEz_GP9G8ct-54" value="APPROVE DECKLISTS" style="rounded=0;whiteSpace=wrap;html=1;direction=west;" vertex="1" parent="WIyWlLk6GJQsqaUBKTNV-1">
          <mxGeometry x="-1220" y="1605" width="110" height="50" as="geometry" />
        </mxCell>
        <mxCell id="0kyeVdW8HTEz_GP9G8ct-55" value="" style="edgeStyle=orthogonalEdgeStyle;rounded=0;orthogonalLoop=1;jettySize=auto;html=1;" edge="1" parent="WIyWlLk6GJQsqaUBKTNV-1" source="0kyeVdW8HTEz_GP9G8ct-56" target="0kyeVdW8HTEz_GP9G8ct-57">
          <mxGeometry relative="1" as="geometry" />
        </mxCell>
        <mxCell id="0kyeVdW8HTEz_GP9G8ct-56" value="VIEW ORDERS" style="rounded=0;whiteSpace=wrap;html=1;direction=west;" vertex="1" parent="WIyWlLk6GJQsqaUBKTNV-1">
          <mxGeometry x="-1070" y="1250" width="100" height="40" as="geometry" />
        </mxCell>
        <mxCell id="0kyeVdW8HTEz_GP9G8ct-57" value="CANCEL ORDERS" style="whiteSpace=wrap;html=1;rounded=0;" vertex="1" parent="WIyWlLk6GJQsqaUBKTNV-1">
          <mxGeometry x="-1070" y="1185" width="100" height="35" as="geometry" />
        </mxCell>
        <mxCell id="0kyeVdW8HTEz_GP9G8ct-58" value="VIEW USER INFO, LOGIN CREDENTIALS,PREVIOUS EVENTS/DECKLISTS" style="rounded=0;whiteSpace=wrap;html=1;direction=west;" vertex="1" parent="WIyWlLk6GJQsqaUBKTNV-1">
          <mxGeometry x="-1310" y="1300" width="170" height="87.5" as="geometry" />
        </mxCell>
        <mxCell id="0kyeVdW8HTEz_GP9G8ct-62" value="EMPLOYEE" style="text;html=1;strokeColor=none;fillColor=none;align=center;verticalAlign=middle;whiteSpace=wrap;rounded=0;fontSize=26;" vertex="1" parent="WIyWlLk6GJQsqaUBKTNV-1">
          <mxGeometry x="-900" y="1125" width="270" height="140" as="geometry" />
        </mxCell>
        <mxCell id="0kyeVdW8HTEz_GP9G8ct-63" value="login, Have Own DashBoard,&amp;nbsp; Update the product collection (prices, stock), approve orders from customers, Create Events (FNM, PTQ), Publish Decklists from users who submit, publish decklists of week/month, create different products and put them in collections" style="text;html=1;strokeColor=none;fillColor=none;align=center;verticalAlign=middle;whiteSpace=wrap;rounded=0;" vertex="1" parent="WIyWlLk6GJQsqaUBKTNV-1">
          <mxGeometry x="-960" y="980" width="330" height="100" as="geometry" />
        </mxCell>
        <mxCell id="0kyeVdW8HTEz_GP9G8ct-72" value="" style="edgeStyle=orthogonalEdgeStyle;rounded=0;orthogonalLoop=1;jettySize=auto;html=1;fontSize=12;" edge="1" parent="WIyWlLk6GJQsqaUBKTNV-1" source="0kyeVdW8HTEz_GP9G8ct-67" target="0kyeVdW8HTEz_GP9G8ct-71">
          <mxGeometry relative="1" as="geometry" />
        </mxCell>
        <mxCell id="0kyeVdW8HTEz_GP9G8ct-67" value="VIEW EVENTS" style="rounded=0;whiteSpace=wrap;html=1;fontSize=12;" vertex="1" parent="WIyWlLk6GJQsqaUBKTNV-1">
          <mxGeometry x="-1230" y="1460" width="120" height="60" as="geometry" />
        </mxCell>
        <mxCell id="0kyeVdW8HTEz_GP9G8ct-79" value="" style="edgeStyle=orthogonalEdgeStyle;rounded=0;orthogonalLoop=1;jettySize=auto;html=1;fontSize=12;" edge="1" parent="WIyWlLk6GJQsqaUBKTNV-1" source="0kyeVdW8HTEz_GP9G8ct-69" target="0kyeVdW8HTEz_GP9G8ct-78">
          <mxGeometry relative="1" as="geometry" />
        </mxCell>
        <mxCell id="0kyeVdW8HTEz_GP9G8ct-69" value="VIEW DECKLISTS" style="rounded=0;whiteSpace=wrap;html=1;fontSize=12;" vertex="1" parent="WIyWlLk6GJQsqaUBKTNV-1">
          <mxGeometry x="-1065" y="1600" width="120" height="60" as="geometry" />
        </mxCell>
        <mxCell id="0kyeVdW8HTEz_GP9G8ct-71" value="EDIT/CANCEL EVENT" style="whiteSpace=wrap;html=1;rounded=0;" vertex="1" parent="WIyWlLk6GJQsqaUBKTNV-1">
          <mxGeometry x="-1400" y="1460" width="120" height="60" as="geometry" />
        </mxCell>
        <mxCell id="0kyeVdW8HTEz_GP9G8ct-82" value="" style="edgeStyle=orthogonalEdgeStyle;rounded=0;orthogonalLoop=1;jettySize=auto;html=1;fontSize=12;" edge="1" parent="WIyWlLk6GJQsqaUBKTNV-1" source="0kyeVdW8HTEz_GP9G8ct-73" target="0kyeVdW8HTEz_GP9G8ct-67">
          <mxGeometry relative="1" as="geometry" />
        </mxCell>
        <mxCell id="0kyeVdW8HTEz_GP9G8ct-83" value="" style="edgeStyle=orthogonalEdgeStyle;rounded=0;orthogonalLoop=1;jettySize=auto;html=1;fontSize=12;" edge="1" parent="WIyWlLk6GJQsqaUBKTNV-1" source="0kyeVdW8HTEz_GP9G8ct-73" target="0kyeVdW8HTEz_GP9G8ct-69">
          <mxGeometry relative="1" as="geometry" />
        </mxCell>
        <mxCell id="0kyeVdW8HTEz_GP9G8ct-85" value="" style="edgeStyle=orthogonalEdgeStyle;rounded=0;orthogonalLoop=1;jettySize=auto;html=1;fontSize=12;" edge="1" parent="WIyWlLk6GJQsqaUBKTNV-1" source="0kyeVdW8HTEz_GP9G8ct-73" target="0kyeVdW8HTEz_GP9G8ct-84">
          <mxGeometry relative="1" as="geometry" />
        </mxCell>
        <mxCell id="0kyeVdW8HTEz_GP9G8ct-73" value="VIEW PARTICIPANTS" style="rounded=0;whiteSpace=wrap;html=1;fontSize=12;" vertex="1" parent="WIyWlLk6GJQsqaUBKTNV-1">
          <mxGeometry x="-1060" y="1510" width="110" height="65" as="geometry" />
        </mxCell>
        <mxCell id="0kyeVdW8HTEz_GP9G8ct-78" value="PUBLISH DECKLISTS&amp;nbsp;" style="rounded=0;whiteSpace=wrap;html=1;fontSize=12;" vertex="1" parent="WIyWlLk6GJQsqaUBKTNV-1">
          <mxGeometry x="-1065" y="1715" width="120" height="60" as="geometry" />
        </mxCell>
        <mxCell id="0kyeVdW8HTEz_GP9G8ct-84" value="DELETE PARTICIPANTS" style="whiteSpace=wrap;html=1;rounded=0;" vertex="1" parent="WIyWlLk6GJQsqaUBKTNV-1">
          <mxGeometry x="-890" y="1512.5" width="120" height="60" as="geometry" />
        </mxCell>
      </root>
    </mxGraphModel>
  </diagram>
</mxfile>
